{"title":"Fist of the Dragon 2014 DVDRip x264 AC3-MiLLENiUM","uid":11534545,"size":887902309,"categoryP":"video","categoryS":"movies","magnet":"?xt=urn:btih:4dc4df7c918e07413472387f012975eed5dcee18&amp;dn=Fist+of+the+Dragon+2014+DVDRip+x264+AC3-MiLLENiUM&amp;tr=udp%3A%2F%2Ftracker.openbittorrent.com%3A80&amp;tr=udp%3A%2F%2Fopen.demonii.com%3A1337&amp;tr=udp%3A%2F%2Ftracker.coppersurfer.tk%3A6969&amp;tr=udp%3A%2F%2Fexodus.desync.com%3A6969","seeders":1,"leechers":0,"uploader":"TvTeam","files":4,"time":1416613867,"description":" &lt;a href=&quot;http://www.torrenting.com&quot; rel=&quot;nofollow&quot; target=&quot;_NEW&quot;&gt;http://www.torrenting.com&lt;/a&gt;\n\nSign up is OPEN - for time being. Come and have fun.\n\n------------------------------------------------------------------[img]http://i.imgur.com/ER0byFk.jpg[/img]\n \n[color=red][b]Fist of the Dragon 2014 DVDRip x264 AC3-MiLLENiUM[/b][/color]\n\n[color=red]General[/color]\n\nSource...............: NTSC.DVDR-MASTER [THANKS]\nIMDb Information.... : http://www.imdb.com/title/tt2646956/\nSample Included......: yes\nSubtitles............: English hardcoded for thai parts only \n\nGeneral\nComplete name                            : Fist of the Dragon 2014 DVDRip x264 AC3-MiLLENiUM.mkv\nFormat                                   : Matroska\nFormat version                           : Version 2\nFile size                                : 827 MiB\nDuration                                 : 1h 23mn\nOverall bit rate mode                    : Variable\nOverall bit rate                         : 1 386 Kbps\nEncoded date                             : UTC 2014-11-21 21:59:53\nWriting application                      : mkvmerge v7.1.0 ('Good Love') 32bit built on Jul 27 2014 12:59:18\nWriting library                          : libebml v1.3.0 + libmatroska v1.4.1\n\nVideo\nID                                       : 1\nFormat                                   : AVC\nFormat/Info                              : Advanced Video Codec\nFormat profile                           : &lt;a class=&quot;__cf_email__&quot; href=&quot;/cdn-cgi/l/email-protection&quot; data-cfemail=&quot;632b0a040b232f574d52&quot;&gt;[email&amp;#160;protected]&lt;/a&gt;&lt;script cf-hash='f9e31' type=&quot;text/javascript&quot;&gt;\n/* &lt;![CDATA[ */!function(){try{var t=&quot;currentScript&quot;in document?document.currentScript:function(){for(var t=document.getElementsByTagName(&quot;script&quot;),e=t.length;e--;)if(t[e].getAttribute(&quot;cf-hash&quot;))return t[e]}();if(t&amp;&amp;t.previousSibling){var e,r,n,i,c=t.previousSibling,a=c.getAttribute(&quot;data-cfemail&quot;);if(a){for(e=&quot;&quot;,r=parseInt(a.substr(0,2),16),n=2;a.length-n;n+=2)i=parseInt(a.substr(n,2),16)^r,e+=String.fromCharCode(i);e=document.createTextNode(e),c.parentNode.replaceChild(e,c)}}}catch(u){}}();/* ]]&gt; */&lt;/script&gt;\nFormat settings, CABAC                   : Yes\nFormat settings, ReFrames                : 3 frames\nCodec ID                                 : V_MPEG4/ISO/AVC\nDuration                                 : 1h 23mn\nBit rate mode                            : Variable\nBit rate                                 : 975 Kbps\nMaximum bit rate                         : 40.0 Mbps\nWidth                                    : 720 pixels\nHeight                                   : 400 pixels\nDisplay aspect ratio                     : 16:9\nFrame rate mode                          : Constant\nFrame rate                               : 23.976 fps\nColor space                              : YUV\nChroma subsampling                       : 4:2:0\nBit depth                                : 8 bits\nScan type                                : Progressive\nBits/(Pixel*Frame)                       : 0.141\nStream size                              : 581 MiB (70%)\nWriting library                          : x264 core 142 r2453 ea0ca51\nColor range                              : Full\n\nAudio\nID                                       : 2\nFormat                                   : AC-3\nFormat/Info                              : Audio Coding 3\nMode extension                           : CM (complete main)\nFormat settings, Endianness              : Big\nCodec ID                                 : A_AC3\nDuration                                 : 1h 23mn\nBit rate mode                            : Constant\nBit rate                                 : 384 Kbps\nChannel(s)                               : 6 channels\nChannel positions                        : Front: L C R, Side: L R, LFE\nSampling rate                            : 48.0 KHz\nBit depth                                : 16 bits\nCompression mode                         : Lossy\nStream size                              : 229 MiB (28%)\nLanguage                                 : English\nDefault                                  : Yes\nForced                                   : No\n\n[color=red]Plot[/color]\n\nDamon, an MMA fighter retires and goes to China to meet his new love, Meili. But things take an immediate turn when he inadvertently takes a package sought by an underground arms dealer. Now he must fight to save himself and his loved one","torrent":{"xt":"urn:btih:4dc4df7c918e07413472387f012975eed5dcee18","amp;dn":"Fist+of+the+Dragon+2014+DVDRip+x264+AC3-MiLLENiUM","amp;tr":["udp%3A%2F%2Ftracker.openbittorrent.com%3A80","udp%3A%2F%2Fopen.demonii.com%3A1337","udp%3A%2F%2Ftracker.coppersurfer.tk%3A6969","udp%3A%2F%2Fexodus.desync.com%3A6969"],"infoHash":"4dc4df7c918e07413472387f012975eed5dcee18","infoHashBuffer":{"type":"Buffer","data":[77,196,223,124,145,142,7,65,52,114,56,127,1,41,117,238,213,220,238,24]},"announce":[],"urlList":[]}}